<mxfile host="Electron" agent="Mozilla/5.0 (Windows NT 10.0; Win64; x64) AppleWebKit/537.36 (KHTML, like Gecko) draw.io/24.7.5 Chrome/126.0.6478.183 Electron/31.3.0 Safari/537.36" version="24.7.5">
  <diagram name="Page-1" id="phmnGOaca-lafL5Uu9KH">
    <mxGraphModel dx="1195" dy="697" grid="1" gridSize="10" guides="1" tooltips="1" connect="1" arrows="1" fold="1" page="1" pageScale="1" pageWidth="827" pageHeight="1169" math="0" shadow="0">
      <root>
        <mxCell id="0" />
        <mxCell id="1" parent="0" />
        <mxCell id="HIdcI1SmIets7IFpjuwE-3" value="RF harverster&lt;div&gt;&lt;font style=&quot;font-size: 8px;&quot;&gt;(charge pump only)&lt;/font&gt;&lt;/div&gt;" style="rounded=1;whiteSpace=wrap;html=1;hachureGap=4;arcSize=0;" parent="1" vertex="1">
          <mxGeometry x="400" y="80" width="120" height="60" as="geometry" />
        </mxCell>
        <mxCell id="HIdcI1SmIets7IFpjuwE-10" value="" style="group" parent="1" vertex="1" connectable="0">
          <mxGeometry x="290" y="88" width="60" height="72" as="geometry" />
        </mxCell>
        <mxCell id="HIdcI1SmIets7IFpjuwE-4" value="" style="rounded=0;whiteSpace=wrap;html=1;" parent="HIdcI1SmIets7IFpjuwE-10" vertex="1">
          <mxGeometry y="12" width="60" height="60" as="geometry" />
        </mxCell>
        <mxCell id="HIdcI1SmIets7IFpjuwE-6" value="" style="endArrow=none;html=1;rounded=0;entryX=0.999;entryY=0.178;entryDx=0;entryDy=0;entryPerimeter=0;fontSize=12;strokeWidth=3;" parent="HIdcI1SmIets7IFpjuwE-10" target="HIdcI1SmIets7IFpjuwE-4" edge="1">
          <mxGeometry width="50" height="50" relative="1" as="geometry">
            <mxPoint x="30" y="42" as="sourcePoint" />
            <mxPoint x="70" y="37" as="targetPoint" />
          </mxGeometry>
        </mxCell>
        <mxCell id="HIdcI1SmIets7IFpjuwE-7" value="" style="endArrow=none;html=1;rounded=0;entryX=1;entryY=0.75;entryDx=0;entryDy=0;fontSize=12;strokeWidth=3;" parent="HIdcI1SmIets7IFpjuwE-10" target="HIdcI1SmIets7IFpjuwE-4" edge="1">
          <mxGeometry width="50" height="50" relative="1" as="geometry">
            <mxPoint x="30" y="42" as="sourcePoint" />
            <mxPoint x="70" y="33" as="targetPoint" />
          </mxGeometry>
        </mxCell>
        <mxCell id="HIdcI1SmIets7IFpjuwE-8" value="" style="endArrow=none;html=1;rounded=0;exitX=0;exitY=0.5;exitDx=0;exitDy=0;fontSize=12;strokeWidth=3;" parent="HIdcI1SmIets7IFpjuwE-10" source="HIdcI1SmIets7IFpjuwE-4" edge="1">
          <mxGeometry width="50" height="50" relative="1" as="geometry">
            <mxPoint x="40" y="52" as="sourcePoint" />
            <mxPoint x="30" y="42" as="targetPoint" />
          </mxGeometry>
        </mxCell>
        <mxCell id="HIdcI1SmIets7IFpjuwE-9" value="&lt;font style=&quot;font-size: 10px;&quot;&gt;RF Splitter&lt;/font&gt;" style="text;html=1;align=center;verticalAlign=middle;whiteSpace=wrap;rounded=0;" parent="HIdcI1SmIets7IFpjuwE-10" vertex="1">
          <mxGeometry width="60" height="10" as="geometry" />
        </mxCell>
        <mxCell id="HIdcI1SmIets7IFpjuwE-11" value="&lt;font color=&quot;#ff0000&quot;&gt;Multi-tone&lt;/font&gt; signal" style="rounded=0;whiteSpace=wrap;html=1;" parent="1" vertex="1">
          <mxGeometry x="110" y="100" width="120" height="60" as="geometry" />
        </mxCell>
        <mxCell id="HIdcI1SmIets7IFpjuwE-12" value="" style="endArrow=none;html=1;rounded=0;exitX=1;exitY=0.5;exitDx=0;exitDy=0;" parent="1" source="HIdcI1SmIets7IFpjuwE-11" edge="1">
          <mxGeometry width="50" height="50" relative="1" as="geometry">
            <mxPoint x="360" y="180" as="sourcePoint" />
            <mxPoint x="290" y="130" as="targetPoint" />
          </mxGeometry>
        </mxCell>
        <mxCell id="HIdcI1SmIets7IFpjuwE-13" value="" style="endArrow=none;html=1;rounded=0;entryX=0;entryY=0.5;entryDx=0;entryDy=0;" parent="1" target="HIdcI1SmIets7IFpjuwE-3" edge="1">
          <mxGeometry width="50" height="50" relative="1" as="geometry">
            <mxPoint x="350" y="110" as="sourcePoint" />
            <mxPoint x="500" y="100" as="targetPoint" />
          </mxGeometry>
        </mxCell>
        <mxCell id="HIdcI1SmIets7IFpjuwE-14" value="" style="endArrow=none;html=1;rounded=0;" parent="1" edge="1">
          <mxGeometry width="50" height="50" relative="1" as="geometry">
            <mxPoint x="580" y="108" as="sourcePoint" />
            <mxPoint x="580" y="95" as="targetPoint" />
          </mxGeometry>
        </mxCell>
        <mxCell id="HIdcI1SmIets7IFpjuwE-15" value="" style="endArrow=none;html=1;rounded=0;strokeWidth=2;" parent="1" edge="1">
          <mxGeometry width="50" height="50" relative="1" as="geometry">
            <mxPoint x="590" y="107.94" as="sourcePoint" />
            <mxPoint x="570" y="108" as="targetPoint" />
          </mxGeometry>
        </mxCell>
        <mxCell id="HIdcI1SmIets7IFpjuwE-16" value="" style="endArrow=none;html=1;rounded=0;strokeWidth=2;" parent="1" edge="1">
          <mxGeometry width="50" height="50" relative="1" as="geometry">
            <mxPoint x="590" y="111.94" as="sourcePoint" />
            <mxPoint x="570" y="112" as="targetPoint" />
          </mxGeometry>
        </mxCell>
        <mxCell id="HIdcI1SmIets7IFpjuwE-17" value="" style="endArrow=none;html=1;rounded=0;" parent="1" edge="1">
          <mxGeometry width="50" height="50" relative="1" as="geometry">
            <mxPoint x="580" y="125" as="sourcePoint" />
            <mxPoint x="580" y="112" as="targetPoint" />
          </mxGeometry>
        </mxCell>
        <mxCell id="HIdcI1SmIets7IFpjuwE-19" value="" style="endArrow=none;html=1;rounded=0;exitX=1;exitY=0.25;exitDx=0;exitDy=0;" parent="1" source="HIdcI1SmIets7IFpjuwE-3" edge="1">
          <mxGeometry width="50" height="50" relative="1" as="geometry">
            <mxPoint x="520" y="100" as="sourcePoint" />
            <mxPoint x="580" y="95" as="targetPoint" />
          </mxGeometry>
        </mxCell>
        <mxCell id="HIdcI1SmIets7IFpjuwE-20" value="" style="endArrow=none;html=1;rounded=0;exitX=1;exitY=0.75;exitDx=0;exitDy=0;" parent="1" source="HIdcI1SmIets7IFpjuwE-3" edge="1">
          <mxGeometry width="50" height="50" relative="1" as="geometry">
            <mxPoint x="530" y="105" as="sourcePoint" />
            <mxPoint x="580" y="125" as="targetPoint" />
          </mxGeometry>
        </mxCell>
        <mxCell id="HIdcI1SmIets7IFpjuwE-21" value="&lt;font style=&quot;font-size: 10px;&quot;&gt;Energy&amp;nbsp;&lt;/font&gt;&lt;span style=&quot;font-size: 10px; background-color: initial;&quot;&gt;buffer&lt;/span&gt;" style="text;html=1;align=center;verticalAlign=middle;whiteSpace=wrap;rounded=0;" parent="1" vertex="1">
          <mxGeometry x="550" y="130" width="60" height="10" as="geometry" />
        </mxCell>
        <mxCell id="HIdcI1SmIets7IFpjuwE-23" value="" style="endArrow=classic;html=1;rounded=0;fillColor=#60a917;strokeColor=#2D7600;" parent="1" edge="1">
          <mxGeometry width="50" height="50" relative="1" as="geometry">
            <mxPoint x="600" y="60" as="sourcePoint" />
            <mxPoint x="570" y="88" as="targetPoint" />
          </mxGeometry>
        </mxCell>
        <mxCell id="HIdcI1SmIets7IFpjuwE-24" value="&lt;font color=&quot;#4d9900&quot;&gt;CH2&lt;/font&gt;" style="text;html=1;align=center;verticalAlign=middle;whiteSpace=wrap;rounded=0;" parent="1" vertex="1">
          <mxGeometry x="590" y="40" width="30" height="20" as="geometry" />
        </mxCell>
        <mxCell id="HIdcI1SmIets7IFpjuwE-25" value="" style="endArrow=classic;html=1;rounded=0;fillColor=#60a917;strokeColor=#2D7600;entryX=1;entryY=0.75;entryDx=0;entryDy=0;" parent="1" target="HIdcI1SmIets7IFpjuwE-4" edge="1">
          <mxGeometry width="50" height="50" relative="1" as="geometry">
            <mxPoint x="390" y="160" as="sourcePoint" />
            <mxPoint x="360" y="188" as="targetPoint" />
          </mxGeometry>
        </mxCell>
        <mxCell id="HIdcI1SmIets7IFpjuwE-26" value="&lt;font color=&quot;#4d9900&quot;&gt;CH1&lt;/font&gt;" style="text;html=1;align=center;verticalAlign=middle;whiteSpace=wrap;rounded=0;" parent="1" vertex="1">
          <mxGeometry x="380" y="160" width="30" height="20" as="geometry" />
        </mxCell>
        <mxCell id="_dBQ0JyXYwH7cm3glaJY-2" value="&lt;font color=&quot;#ff0000&quot;&gt;Problem &lt;/font&gt;&lt;font color=&quot;#ffffff&quot;&gt;with this setup is the input impedance is not 50 ohm, and causes reflected power (also visiable on the scope CH2)&lt;/font&gt;" style="text;html=1;align=center;verticalAlign=middle;whiteSpace=wrap;rounded=0;" vertex="1" parent="1">
          <mxGeometry x="40" y="200" width="710" height="20" as="geometry" />
        </mxCell>
        <mxCell id="_dBQ0JyXYwH7cm3glaJY-3" value="RF harverster&lt;div&gt;&lt;font style=&quot;font-size: 8px;&quot;&gt;(charge pump only)&lt;/font&gt;&lt;/div&gt;" style="rounded=1;whiteSpace=wrap;html=1;hachureGap=4;arcSize=0;" vertex="1" parent="1">
          <mxGeometry x="500" y="290" width="120" height="60" as="geometry" />
        </mxCell>
        <mxCell id="_dBQ0JyXYwH7cm3glaJY-4" value="" style="group" vertex="1" connectable="0" parent="1">
          <mxGeometry x="230" y="298" width="60" height="72" as="geometry" />
        </mxCell>
        <mxCell id="_dBQ0JyXYwH7cm3glaJY-5" value="" style="rounded=0;whiteSpace=wrap;html=1;" vertex="1" parent="_dBQ0JyXYwH7cm3glaJY-4">
          <mxGeometry y="12" width="60" height="60" as="geometry" />
        </mxCell>
        <mxCell id="_dBQ0JyXYwH7cm3glaJY-6" value="" style="endArrow=none;html=1;rounded=0;entryX=0.999;entryY=0.178;entryDx=0;entryDy=0;entryPerimeter=0;fontSize=12;strokeWidth=3;" edge="1" parent="_dBQ0JyXYwH7cm3glaJY-4" target="_dBQ0JyXYwH7cm3glaJY-5">
          <mxGeometry width="50" height="50" relative="1" as="geometry">
            <mxPoint x="30" y="42" as="sourcePoint" />
            <mxPoint x="70" y="37" as="targetPoint" />
          </mxGeometry>
        </mxCell>
        <mxCell id="_dBQ0JyXYwH7cm3glaJY-7" value="" style="endArrow=none;html=1;rounded=0;entryX=1;entryY=0.75;entryDx=0;entryDy=0;fontSize=12;strokeWidth=3;" edge="1" parent="_dBQ0JyXYwH7cm3glaJY-4" target="_dBQ0JyXYwH7cm3glaJY-5">
          <mxGeometry width="50" height="50" relative="1" as="geometry">
            <mxPoint x="30" y="42" as="sourcePoint" />
            <mxPoint x="70" y="33" as="targetPoint" />
          </mxGeometry>
        </mxCell>
        <mxCell id="_dBQ0JyXYwH7cm3glaJY-8" value="" style="endArrow=none;html=1;rounded=0;exitX=0;exitY=0.5;exitDx=0;exitDy=0;fontSize=12;strokeWidth=3;" edge="1" parent="_dBQ0JyXYwH7cm3glaJY-4" source="_dBQ0JyXYwH7cm3glaJY-5">
          <mxGeometry width="50" height="50" relative="1" as="geometry">
            <mxPoint x="40" y="52" as="sourcePoint" />
            <mxPoint x="30" y="42" as="targetPoint" />
          </mxGeometry>
        </mxCell>
        <mxCell id="_dBQ0JyXYwH7cm3glaJY-9" value="&lt;font style=&quot;font-size: 10px;&quot;&gt;RF Splitter&lt;/font&gt;" style="text;html=1;align=center;verticalAlign=middle;whiteSpace=wrap;rounded=0;" vertex="1" parent="_dBQ0JyXYwH7cm3glaJY-4">
          <mxGeometry width="60" height="10" as="geometry" />
        </mxCell>
        <mxCell id="_dBQ0JyXYwH7cm3glaJY-10" value="&lt;font color=&quot;#ff0000&quot;&gt;Multi-tone&lt;/font&gt; signal" style="rounded=0;whiteSpace=wrap;html=1;" vertex="1" parent="1">
          <mxGeometry x="50" y="310" width="120" height="60" as="geometry" />
        </mxCell>
        <mxCell id="_dBQ0JyXYwH7cm3glaJY-11" value="" style="endArrow=none;html=1;rounded=0;exitX=1;exitY=0.5;exitDx=0;exitDy=0;" edge="1" parent="1" source="_dBQ0JyXYwH7cm3glaJY-10">
          <mxGeometry width="50" height="50" relative="1" as="geometry">
            <mxPoint x="300" y="390" as="sourcePoint" />
            <mxPoint x="230" y="340" as="targetPoint" />
          </mxGeometry>
        </mxCell>
        <mxCell id="_dBQ0JyXYwH7cm3glaJY-13" value="" style="endArrow=none;html=1;rounded=0;" edge="1" parent="1">
          <mxGeometry width="50" height="50" relative="1" as="geometry">
            <mxPoint x="680" y="318" as="sourcePoint" />
            <mxPoint x="680" y="305" as="targetPoint" />
          </mxGeometry>
        </mxCell>
        <mxCell id="_dBQ0JyXYwH7cm3glaJY-14" value="" style="endArrow=none;html=1;rounded=0;strokeWidth=2;" edge="1" parent="1">
          <mxGeometry width="50" height="50" relative="1" as="geometry">
            <mxPoint x="690" y="317.94" as="sourcePoint" />
            <mxPoint x="670" y="318" as="targetPoint" />
          </mxGeometry>
        </mxCell>
        <mxCell id="_dBQ0JyXYwH7cm3glaJY-15" value="" style="endArrow=none;html=1;rounded=0;strokeWidth=2;" edge="1" parent="1">
          <mxGeometry width="50" height="50" relative="1" as="geometry">
            <mxPoint x="690" y="321.94" as="sourcePoint" />
            <mxPoint x="670" y="322" as="targetPoint" />
          </mxGeometry>
        </mxCell>
        <mxCell id="_dBQ0JyXYwH7cm3glaJY-16" value="" style="endArrow=none;html=1;rounded=0;" edge="1" parent="1">
          <mxGeometry width="50" height="50" relative="1" as="geometry">
            <mxPoint x="680" y="335" as="sourcePoint" />
            <mxPoint x="680" y="322" as="targetPoint" />
          </mxGeometry>
        </mxCell>
        <mxCell id="_dBQ0JyXYwH7cm3glaJY-17" value="" style="endArrow=none;html=1;rounded=0;exitX=1;exitY=0.25;exitDx=0;exitDy=0;" edge="1" parent="1" source="_dBQ0JyXYwH7cm3glaJY-3">
          <mxGeometry width="50" height="50" relative="1" as="geometry">
            <mxPoint x="620" y="310" as="sourcePoint" />
            <mxPoint x="680" y="305" as="targetPoint" />
          </mxGeometry>
        </mxCell>
        <mxCell id="_dBQ0JyXYwH7cm3glaJY-18" value="" style="endArrow=none;html=1;rounded=0;exitX=1;exitY=0.75;exitDx=0;exitDy=0;" edge="1" parent="1" source="_dBQ0JyXYwH7cm3glaJY-3">
          <mxGeometry width="50" height="50" relative="1" as="geometry">
            <mxPoint x="630" y="315" as="sourcePoint" />
            <mxPoint x="680" y="335" as="targetPoint" />
          </mxGeometry>
        </mxCell>
        <mxCell id="_dBQ0JyXYwH7cm3glaJY-19" value="&lt;font style=&quot;font-size: 10px;&quot;&gt;Energy&amp;nbsp;&lt;/font&gt;&lt;span style=&quot;font-size: 10px; background-color: initial;&quot;&gt;buffer&lt;/span&gt;" style="text;html=1;align=center;verticalAlign=middle;whiteSpace=wrap;rounded=0;" vertex="1" parent="1">
          <mxGeometry x="650" y="340" width="60" height="10" as="geometry" />
        </mxCell>
        <mxCell id="_dBQ0JyXYwH7cm3glaJY-20" value="" style="endArrow=classic;html=1;rounded=0;fillColor=#60a917;strokeColor=#2D7600;" edge="1" parent="1">
          <mxGeometry width="50" height="50" relative="1" as="geometry">
            <mxPoint x="700" y="270" as="sourcePoint" />
            <mxPoint x="670" y="298" as="targetPoint" />
          </mxGeometry>
        </mxCell>
        <mxCell id="_dBQ0JyXYwH7cm3glaJY-21" value="&lt;font color=&quot;#4d9900&quot;&gt;CH2&lt;/font&gt;" style="text;html=1;align=center;verticalAlign=middle;whiteSpace=wrap;rounded=0;" vertex="1" parent="1">
          <mxGeometry x="690" y="250" width="30" height="20" as="geometry" />
        </mxCell>
        <mxCell id="_dBQ0JyXYwH7cm3glaJY-22" value="" style="endArrow=classic;html=1;rounded=0;fillColor=#60a917;strokeColor=#2D7600;entryX=1;entryY=0.75;entryDx=0;entryDy=0;" edge="1" parent="1" target="_dBQ0JyXYwH7cm3glaJY-5">
          <mxGeometry width="50" height="50" relative="1" as="geometry">
            <mxPoint x="330" y="370" as="sourcePoint" />
            <mxPoint x="300" y="398" as="targetPoint" />
          </mxGeometry>
        </mxCell>
        <mxCell id="_dBQ0JyXYwH7cm3glaJY-23" value="&lt;font color=&quot;#4d9900&quot;&gt;CH1&lt;/font&gt;" style="text;html=1;align=center;verticalAlign=middle;whiteSpace=wrap;rounded=0;" vertex="1" parent="1">
          <mxGeometry x="320" y="370" width="30" height="20" as="geometry" />
        </mxCell>
        <mxCell id="_dBQ0JyXYwH7cm3glaJY-24" value="" style="ellipse;whiteSpace=wrap;html=1;aspect=fixed;" vertex="1" parent="1">
          <mxGeometry x="370" y="295" width="50" height="50" as="geometry" />
        </mxCell>
        <mxCell id="_dBQ0JyXYwH7cm3glaJY-29" value="" style="endArrow=block;html=1;rounded=0;curved=1;endFill=1;" edge="1" parent="1">
          <mxGeometry width="50" height="50" relative="1" as="geometry">
            <mxPoint x="378" y="320" as="sourcePoint" />
            <mxPoint x="413" y="320" as="targetPoint" />
            <Array as="points">
              <mxPoint x="393" y="290" />
              <mxPoint x="413" y="320" />
            </Array>
          </mxGeometry>
        </mxCell>
        <mxCell id="_dBQ0JyXYwH7cm3glaJY-31" value="" style="endArrow=none;html=1;rounded=0;exitX=1;exitY=0.5;exitDx=0;exitDy=0;entryX=0;entryY=0.5;entryDx=0;entryDy=0;" edge="1" parent="1" target="_dBQ0JyXYwH7cm3glaJY-24">
          <mxGeometry width="50" height="50" relative="1" as="geometry">
            <mxPoint x="290" y="319.76" as="sourcePoint" />
            <mxPoint x="350" y="319.76" as="targetPoint" />
          </mxGeometry>
        </mxCell>
        <mxCell id="_dBQ0JyXYwH7cm3glaJY-32" value="" style="endArrow=none;html=1;rounded=0;exitX=1;exitY=0.5;exitDx=0;exitDy=0;entryX=0;entryY=0.5;entryDx=0;entryDy=0;" edge="1" parent="1">
          <mxGeometry width="50" height="50" relative="1" as="geometry">
            <mxPoint x="420" y="319.76" as="sourcePoint" />
            <mxPoint x="500" y="320" as="targetPoint" />
          </mxGeometry>
        </mxCell>
        <mxCell id="_dBQ0JyXYwH7cm3glaJY-34" value="" style="endArrow=none;html=1;rounded=0;" edge="1" parent="1">
          <mxGeometry width="50" height="50" relative="1" as="geometry">
            <mxPoint x="390" y="380" as="sourcePoint" />
            <mxPoint x="390" y="360" as="targetPoint" />
          </mxGeometry>
        </mxCell>
        <mxCell id="_dBQ0JyXYwH7cm3glaJY-35" value="" style="endArrow=none;html=1;rounded=0;" edge="1" parent="1">
          <mxGeometry width="50" height="50" relative="1" as="geometry">
            <mxPoint x="399.97" y="380" as="sourcePoint" />
            <mxPoint x="399.97" y="360" as="targetPoint" />
          </mxGeometry>
        </mxCell>
        <mxCell id="_dBQ0JyXYwH7cm3glaJY-36" value="" style="endArrow=none;html=1;rounded=0;" edge="1" parent="1">
          <mxGeometry width="50" height="50" relative="1" as="geometry">
            <mxPoint x="395" y="360" as="sourcePoint" />
            <mxPoint x="394.97" y="345" as="targetPoint" />
          </mxGeometry>
        </mxCell>
        <mxCell id="_dBQ0JyXYwH7cm3glaJY-37" value="" style="endArrow=none;html=1;rounded=0;" edge="1" parent="1">
          <mxGeometry width="50" height="50" relative="1" as="geometry">
            <mxPoint x="400" y="360" as="sourcePoint" />
            <mxPoint x="390" y="360" as="targetPoint" />
          </mxGeometry>
        </mxCell>
        <mxCell id="_dBQ0JyXYwH7cm3glaJY-38" value="" style="endArrow=none;html=1;rounded=0;" edge="1" parent="1">
          <mxGeometry width="50" height="50" relative="1" as="geometry">
            <mxPoint x="400" y="379.9" as="sourcePoint" />
            <mxPoint x="390" y="379.9" as="targetPoint" />
          </mxGeometry>
        </mxCell>
        <mxCell id="_dBQ0JyXYwH7cm3glaJY-39" value="" style="endArrow=none;html=1;rounded=0;" edge="1" parent="1">
          <mxGeometry width="50" height="50" relative="1" as="geometry">
            <mxPoint x="395" y="390" as="sourcePoint" />
            <mxPoint x="394.95" y="380" as="targetPoint" />
          </mxGeometry>
        </mxCell>
        <mxCell id="_dBQ0JyXYwH7cm3glaJY-40" value="" style="endArrow=none;html=1;rounded=0;strokeWidth=2;" edge="1" parent="1">
          <mxGeometry width="50" height="50" relative="1" as="geometry">
            <mxPoint x="405" y="390" as="sourcePoint" />
            <mxPoint x="385" y="390.06" as="targetPoint" />
          </mxGeometry>
        </mxCell>
        <mxCell id="_dBQ0JyXYwH7cm3glaJY-41" value="&lt;span style=&quot;font-size: 10px;&quot;&gt;RF Circulator&lt;/span&gt;" style="text;html=1;align=center;verticalAlign=middle;whiteSpace=wrap;rounded=0;" vertex="1" parent="1">
          <mxGeometry x="357.5" y="280" width="75" height="10" as="geometry" />
        </mxCell>
        <mxCell id="_dBQ0JyXYwH7cm3glaJY-42" value="&lt;span style=&quot;font-size: 10px;&quot;&gt;Reflected power absorbed by 50 Ohm termination&lt;/span&gt;" style="text;html=1;align=center;verticalAlign=middle;whiteSpace=wrap;rounded=0;" vertex="1" parent="1">
          <mxGeometry x="402.5" y="380" width="235" height="10" as="geometry" />
        </mxCell>
      </root>
    </mxGraphModel>
  </diagram>
</mxfile>
